<svg width="194" height="48" viewBox="0 0 194 48" fill="none" xmlns="http://www.w3.org/2000/svg">
<path d="M8.1665 28.6665L8.4885 30.6008C8.79884 32.4628 8.95517 33.3938 9.60734 33.9468C10.2607 34.4998 11.2045 34.4998 13.0922 34.4998H14.9075C16.7952 34.4998 17.7402 34.4998 18.3923 33.9468C19.0445 33.3938 19.2008 32.4628 19.5112 30.6008L19.8332 28.6665" fill="#FF91A5"/>
<path d="M8.1665 28.6665L8.4885 30.6008C8.79884 32.4628 8.95517 33.3938 9.60734 33.9468C10.2607 34.4998 11.2045 34.4998 13.0922 34.4998H14.9075C16.7952 34.4998 17.7402 34.4998 18.3923 33.9468C19.0445 33.3938 19.2008 32.4628 19.5112 30.6008L19.8332 28.6665" stroke="#FF91A5" stroke-width="2" stroke-linecap="round" stroke-linejoin="round"/>
<path d="M15.75 15.25C16.3333 14.0833 17.5 13.5 18.6667 13.5Z" fill="#FF91A5"/>
<path d="M15.75 15.25C16.3333 14.0833 17.5 13.5 18.6667 13.5" stroke="#FF91A5" stroke-width="2" stroke-linecap="round"/>
<path d="M13.9998 19.3332C15.2885 19.3332 16.3332 18.2885 16.3332 16.9998C16.3332 15.7112 15.2885 14.6665 13.9998 14.6665C12.7112 14.6665 11.6665 15.7112 11.6665 16.9998C11.6665 18.2885 12.7112 19.3332 13.9998 19.3332Z" fill="#FF91A5" stroke="#FF91A5" stroke-width="2" stroke-linecap="round" stroke-linejoin="round"/>
<path d="M19.3211 21.6676C19.7771 21.6787 20.2242 21.7966 20.6264 22.0119C21.0286 22.2272 21.3747 22.5337 21.6369 22.907C21.899 23.2803 22.07 23.7099 22.136 24.1613C22.2021 24.6126 22.1613 25.0732 22.017 25.5059C21.8727 25.9387 21.629 26.3316 21.3053 26.653C20.9816 26.9744 20.587 27.2155 20.1533 27.3567C19.7196 27.498 19.2587 27.5355 18.8078 27.4664C18.3569 27.3972 17.9286 27.2232 17.5571 26.9585C17.3759 26.8289 17.1614 26.7538 16.939 26.7423C16.7165 26.7307 16.4954 26.783 16.3018 26.8931L19.3211 21.6676ZM19.3211 21.6676C19.0988 21.6624 18.8826 21.5937 18.698 21.4697M19.3211 21.6676L18.698 21.4697M18.698 21.4697C18.5135 21.3456 18.3682 21.1715 18.2793 20.9676L18.698 21.4697ZM8.33396 19.6484C8.98775 18.4873 9.9783 17.5594 11.1666 16.9818V18.5114C10.3277 19.0611 9.66491 19.8445 9.26229 20.7678L9.26229 20.7678C9.2115 20.8842 9.12847 20.9838 9.023 21.0546C8.91752 21.1255 8.79399 21.1648 8.66696 21.1678L8.6666 21.1678C8.13239 21.1808 7.60868 21.3189 7.13755 21.5711C6.66642 21.8232 6.261 22.1824 5.95387 22.6197C5.64674 23.0569 5.44645 23.5602 5.36911 24.0889C5.29177 24.6176 5.33952 25.1572 5.50854 25.6641C5.67755 26.171 5.96311 26.6312 6.34228 27.0078C6.72145 27.3843 7.18365 27.6667 7.69175 27.8321C8.19984 27.9976 8.73967 28.0416 9.26786 27.9606C9.79605 27.8796 10.2979 27.6758 10.733 27.3656L10.7337 27.3651C10.8372 27.2911 10.9598 27.2482 11.0869 27.2416C11.214 27.235 11.3403 27.2649 11.451 27.3278L11.4512 27.3279C12.2019 27.7543 13.0706 27.9998 13.9999 27.9998C14.9292 27.9998 15.798 27.7543 16.5487 27.3279L16.5489 27.3278C16.6595 27.2649 16.7859 27.235 16.913 27.2416C17.0401 27.2482 17.1627 27.2911 17.2662 27.3651L17.2669 27.3656C17.702 27.6758 18.2038 27.8796 18.732 27.9606C19.2602 28.0416 19.8 27.9976 20.3081 27.8321C20.8162 27.6667 21.2784 27.3843 21.6576 27.0078C22.0368 26.6312 22.3223 26.171 22.4913 25.6641C22.6604 25.1572 22.7081 24.6176 22.6308 24.0889C22.5534 23.5602 22.3531 23.0569 22.046 22.6197C21.7389 22.1824 21.3335 21.8232 20.8623 21.5711C20.3912 21.3189 19.8675 21.1808 19.3333 21.1678L19.3329 21.1678C19.2059 21.1648 19.0824 21.1255 18.9769 21.0546C18.8714 20.9838 18.7884 20.8842 18.7376 20.7678L18.7376 20.7678C18.335 19.8445 17.6722 19.0611 16.8333 18.5114V16.9817C18.0215 17.559 19.012 18.4865 19.666 19.6474L19.7837 19.8564L20.0205 19.8953C20.6989 20.0068 21.3449 20.2642 21.9141 20.6497C22.4833 21.0352 22.9621 21.5396 23.3173 22.1282C23.6726 22.7167 23.896 23.3753 23.9719 24.0585C24.0479 24.7418 23.9747 25.4334 23.7574 26.0856C23.54 26.7377 23.1838 27.335 22.7132 27.8361C22.2426 28.3372 21.6688 28.7302 21.0315 28.988C20.3942 29.2458 19.7086 29.3623 19.022 29.3293C18.3353 29.2963 17.664 29.1147 17.0543 28.797L16.8415 28.6862L16.6219 28.7828C15.7957 29.1463 14.9029 29.3337 14.0003 29.3331L13.9998 29.3331C13.0971 29.3334 12.2043 29.1456 11.3781 28.7817L11.1584 28.6849L10.9455 28.7959C10.3361 29.1135 9.66494 29.295 8.97848 29.328C8.29201 29.361 7.60656 29.2446 6.96945 28.9869C6.33233 28.7293 5.75872 28.3364 5.28821 27.8354C4.8177 27.3345 4.4615 26.7374 4.24419 26.0854C4.02688 25.4334 3.95365 24.742 4.02954 24.059C4.10543 23.3759 4.32864 22.7175 4.68376 22.1291C5.03888 21.5407 5.51745 21.0363 6.08644 20.6509C6.65544 20.2654 7.30129 20.0081 7.97944 19.8965L8.21623 19.8575L8.33396 19.6484Z" fill="#FF91A5" stroke="#FF91A5"/>
<path d="M37.376 23.832C37.376 21.656 37.8667 19.704 38.848 17.976C39.8293 16.2267 41.1627 14.8613 42.848 13.88C44.5547 12.8987 46.4427 12.408 48.512 12.408C50.944 12.408 53.0667 12.9947 54.88 14.168C56.6933 15.3413 58.016 17.0053 58.848 19.16H55.36C54.7413 17.816 53.8453 16.7813 52.672 16.056C51.52 15.3307 50.1333 14.968 48.512 14.968C46.9547 14.968 45.5573 15.3307 44.32 16.056C43.0827 16.7813 42.112 17.816 41.408 19.16C40.704 20.4827 40.352 22.04 40.352 23.832C40.352 25.6027 40.704 27.16 41.408 28.504C42.112 29.8267 43.0827 30.8507 44.32 31.576C45.5573 32.3013 46.9547 32.664 48.512 32.664C50.1333 32.664 51.52 32.312 52.672 31.608C53.8453 30.8827 54.7413 29.848 55.36 28.504H58.848C58.016 30.6373 56.6933 32.2907 54.88 33.464C53.0667 34.616 50.944 35.192 48.512 35.192C46.4427 35.192 44.5547 34.712 42.848 33.752C41.1627 32.7707 39.8293 31.416 38.848 29.688C37.8667 27.96 37.376 26.008 37.376 23.832Z" fill="#FF91A5"/>
<path d="M71.8868 17.144C73.2094 17.144 74.4041 17.432 75.4708 18.008C76.5374 18.5627 77.3694 19.4053 77.9668 20.536C78.5854 21.6667 78.8948 23.0427 78.8948 24.664V35H76.0148V25.08C76.0148 23.3307 75.5774 21.9973 74.7028 21.08C73.8281 20.1413 72.6334 19.672 71.1188 19.672C69.5828 19.672 68.3561 20.152 67.4388 21.112C66.5428 22.072 66.0948 23.4693 66.0948 25.304V35H63.1828V11.32H66.0948V19.96C66.6708 19.064 67.4601 18.3707 68.4628 17.88C69.4868 17.3893 70.6281 17.144 71.8868 17.144ZM91.2995 35.288C89.6568 35.288 88.1635 34.9147 86.8195 34.168C85.4968 33.4213 84.4515 32.3653 83.6835 31C82.9368 29.6133 82.5635 28.0133 82.5635 26.2C82.5635 24.408 82.9475 22.8293 83.7155 21.464C84.5048 20.0773 85.5715 19.0213 86.9155 18.296C88.2595 17.5493 89.7635 17.176 91.4275 17.176C93.0915 17.176 94.5955 17.5493 95.9395 18.296C97.2835 19.0213 98.3395 20.0667 99.1075 21.432C99.8968 22.7973 100.292 24.3867 100.292 26.2C100.292 28.0133 99.8862 29.6133 99.0755 31C98.2862 32.3653 97.2088 33.4213 95.8435 34.168C94.4782 34.9147 92.9635 35.288 91.2995 35.288ZM91.2995 32.728C92.3448 32.728 93.3262 32.4827 94.2435 31.992C95.1608 31.5013 95.8968 30.7653 96.4515 29.784C97.0275 28.8027 97.3155 27.608 97.3155 26.2C97.3155 24.792 97.0382 23.5973 96.4835 22.616C95.9288 21.6347 95.2035 20.9093 94.3075 20.44C93.4115 19.9493 92.4408 19.704 91.3955 19.704C90.3288 19.704 89.3475 19.9493 88.4515 20.44C87.5768 20.9093 86.8728 21.6347 86.3395 22.616C85.8062 23.5973 85.5395 24.792 85.5395 26.2C85.5395 27.6293 85.7955 28.8347 86.3075 29.816C86.8408 30.7973 87.5448 31.5333 88.4195 32.024C89.2942 32.4933 90.2542 32.728 91.2995 32.728ZM103.032 26.2C103.032 24.3867 103.395 22.808 104.12 21.464C104.846 20.0987 105.848 19.0427 107.128 18.296C108.43 17.5493 109.912 17.176 111.576 17.176C113.731 17.176 115.502 17.6987 116.888 18.744C118.296 19.7893 119.224 21.24 119.672 23.096H116.536C116.238 22.0293 115.651 21.1867 114.776 20.568C113.923 19.9493 112.856 19.64 111.576 19.64C109.912 19.64 108.568 20.216 107.544 21.368C106.52 22.4987 106.008 24.1093 106.008 26.2C106.008 28.312 106.52 29.944 107.544 31.096C108.568 32.248 109.912 32.824 111.576 32.824C112.856 32.824 113.923 32.5253 114.776 31.928C115.63 31.3307 116.216 30.4773 116.536 29.368H119.672C119.203 31.16 118.264 32.6 116.856 33.688C115.448 34.7547 113.688 35.288 111.576 35.288C109.912 35.288 108.43 34.9147 107.128 34.168C105.848 33.4213 104.846 32.3653 104.12 31C103.395 29.6347 103.032 28.0347 103.032 26.2ZM131.206 35.288C129.563 35.288 128.07 34.9147 126.726 34.168C125.403 33.4213 124.358 32.3653 123.59 31C122.843 29.6133 122.47 28.0133 122.47 26.2C122.47 24.408 122.854 22.8293 123.622 21.464C124.411 20.0773 125.478 19.0213 126.822 18.296C128.166 17.5493 129.67 17.176 131.334 17.176C132.998 17.176 134.502 17.5493 135.846 18.296C137.19 19.0213 138.246 20.0667 139.014 21.432C139.803 22.7973 140.198 24.3867 140.198 26.2C140.198 28.0133 139.792 29.6133 138.982 31C138.192 32.3653 137.115 33.4213 135.75 34.168C134.384 34.9147 132.87 35.288 131.206 35.288ZM131.206 32.728C132.251 32.728 133.232 32.4827 134.15 31.992C135.067 31.5013 135.803 30.7653 136.358 29.784C136.934 28.8027 137.222 27.608 137.222 26.2C137.222 24.792 136.944 23.5973 136.39 22.616C135.835 21.6347 135.11 20.9093 134.214 20.44C133.318 19.9493 132.347 19.704 131.302 19.704C130.235 19.704 129.254 19.9493 128.358 20.44C127.483 20.9093 126.779 21.6347 126.246 22.616C125.712 23.5973 125.446 24.792 125.446 26.2C125.446 27.6293 125.702 28.8347 126.214 29.816C126.747 30.7973 127.451 31.5333 128.326 32.024C129.2 32.4933 130.16 32.728 131.206 32.728ZM152.571 17.144C154.704 17.144 156.432 17.7947 157.755 19.096C159.077 20.376 159.739 22.232 159.739 24.664V35H156.859V25.08C156.859 23.3307 156.421 21.9973 155.547 21.08C154.672 20.1413 153.477 19.672 151.963 19.672C150.427 19.672 149.2 20.152 148.283 21.112C147.387 22.072 146.939 23.4693 146.939 25.304V35H144.027V17.464H146.939V19.96C147.515 19.064 148.293 18.3707 149.275 17.88C150.277 17.3893 151.376 17.144 152.571 17.144ZM180.495 25.56C180.495 26.1147 180.463 26.7013 180.399 27.32H166.383C166.49 29.048 167.077 30.4027 168.143 31.384C169.231 32.344 170.543 32.824 172.079 32.824C173.338 32.824 174.383 32.536 175.215 31.96C176.069 31.3627 176.666 30.5733 177.007 29.592H180.143C179.674 31.2773 178.735 32.6533 177.327 33.72C175.919 34.7653 174.17 35.288 172.079 35.288C170.415 35.288 168.922 34.9147 167.599 34.168C166.298 33.4213 165.274 32.3653 164.527 31C163.781 29.6133 163.407 28.0133 163.407 26.2C163.407 24.3867 163.77 22.7973 164.495 21.432C165.221 20.0667 166.234 19.0213 167.535 18.296C168.858 17.5493 170.373 17.176 172.079 17.176C173.743 17.176 175.215 17.5387 176.495 18.264C177.775 18.9893 178.757 19.992 179.439 21.272C180.143 22.5307 180.495 23.96 180.495 25.56ZM177.487 24.952C177.487 23.8427 177.242 22.8933 176.751 22.104C176.261 21.2933 175.589 20.6853 174.735 20.28C173.903 19.8533 172.975 19.64 171.951 19.64C170.479 19.64 169.221 20.1093 168.175 21.048C167.151 21.9867 166.565 23.288 166.415 24.952H177.487ZM187.891 19.864V30.2C187.891 31.0533 188.072 31.6613 188.435 32.024C188.798 32.3653 189.427 32.536 190.323 32.536H192.467V35H189.843C188.222 35 187.006 34.6267 186.195 33.88C185.384 33.1333 184.979 31.9067 184.979 30.2V19.864H182.707V17.464H184.979V13.048H187.891V17.464H192.467V19.864H187.891Z" fill="white"/>
</svg>
